<svg width="227" height="48" viewBox="0 0 227 48" fill="none" xmlns="http://www.w3.org/2000/svg">
<path d="M16.064 12.536V27.832C16.064 30.2 15.392 32.024 14.048 33.304C12.7253 34.584 10.9333 35.224 8.672 35.224C6.304 35.224 4.40533 34.552 2.976 33.208C1.54667 31.864 0.832 29.9547 0.832 27.48H6.272C6.272 28.4187 6.464 29.1333 6.848 29.624C7.232 30.0933 7.78667 30.328 8.512 30.328C9.17333 30.328 9.68533 30.1147 10.048 29.688C10.4107 29.2613 10.592 28.6427 10.592 27.832V12.536H16.064ZM28.612 35.256C26.8627 35.256 25.284 34.8827 23.876 34.136C22.4893 33.3893 21.3907 32.3227 20.58 30.936C19.7907 29.5493 19.396 27.928 19.396 26.072C19.396 24.2373 19.8013 22.6267 20.612 21.24C21.4227 19.832 22.532 18.7547 23.94 18.008C25.348 17.2613 26.9267 16.888 28.676 16.888C30.4253 16.888 32.004 17.2613 33.412 18.008C34.82 18.7547 35.9293 19.832 36.74 21.24C37.5507 22.6267 37.956 24.2373 37.956 26.072C37.956 27.9067 37.54 29.528 36.708 30.936C35.8973 32.3227 34.7773 33.3893 33.348 34.136C31.94 34.8827 30.3613 35.256 28.612 35.256ZM28.612 30.52C29.6573 30.52 30.5427 30.136 31.268 29.368C32.0147 28.6 32.388 27.5013 32.388 26.072C32.388 24.6427 32.0253 23.544 31.3 22.776C30.596 22.008 29.7213 21.624 28.676 21.624C27.6093 21.624 26.724 22.008 26.02 22.776C25.316 23.5227 24.964 24.6213 24.964 26.072C24.964 27.5013 25.3053 28.6 25.988 29.368C26.692 30.136 27.5667 30.52 28.612 30.52ZM46.331 20.12C46.971 19.1387 47.771 18.3707 48.731 17.816C49.691 17.24 50.7577 16.952 51.931 16.952V22.744H50.427C49.0617 22.744 48.0377 23.0427 47.355 23.64C46.6723 24.216 46.331 25.24 46.331 26.712V35H40.859V17.144H46.331V20.12ZM61.3305 16.888C62.5892 16.888 63.6878 17.144 64.6265 17.656C65.5865 18.168 66.3225 18.84 66.8345 19.672V17.144H72.3065V34.968C72.3065 36.6107 71.9758 38.0933 71.3145 39.416C70.6745 40.76 69.6825 41.8267 68.3385 42.616C67.0158 43.4053 65.3625 43.8 63.3785 43.8C60.7332 43.8 58.5892 43.1707 56.9465 41.912C55.3038 40.6747 54.3652 38.9893 54.1305 36.856H59.5385C59.7092 37.5387 60.1145 38.072 60.7545 38.456C61.3945 38.8613 62.1838 39.064 63.1225 39.064C64.2532 39.064 65.1492 38.7333 65.8105 38.072C66.4932 37.432 66.8345 36.3973 66.8345 34.968V32.44C66.3012 33.272 65.5652 33.9547 64.6265 34.488C63.6878 35 62.5892 35.256 61.3305 35.256C59.8585 35.256 58.5252 34.8827 57.3305 34.136C56.1358 33.368 55.1865 32.2907 54.4825 30.904C53.7998 29.496 53.4585 27.8747 53.4585 26.04C53.4585 24.2053 53.7998 22.5947 54.4825 21.208C55.1865 19.8213 56.1358 18.7547 57.3305 18.008C58.5252 17.2613 59.8585 16.888 61.3305 16.888ZM66.8345 26.072C66.8345 24.7067 66.4505 23.6293 65.6825 22.84C64.9358 22.0507 64.0185 21.656 62.9305 21.656C61.8425 21.656 60.9145 22.0507 60.1465 22.84C59.3998 23.608 59.0265 24.6747 59.0265 26.04C59.0265 27.4053 59.3998 28.4933 60.1465 29.304C60.9145 30.0933 61.8425 30.488 62.9305 30.488C64.0185 30.488 64.9358 30.0933 65.6825 29.304C66.4505 28.5147 66.8345 27.4373 66.8345 26.072ZM93.0972 25.784C93.0972 26.296 93.0653 26.8293 93.0013 27.384H80.6173C80.7026 28.4933 81.0546 29.3467 81.6733 29.944C82.3133 30.52 83.0919 30.808 84.0093 30.808C85.3746 30.808 86.3239 30.232 86.8573 29.08H92.6813C92.3826 30.2533 91.8386 31.3093 91.0493 32.248C90.2813 33.1867 89.3106 33.9227 88.1373 34.456C86.9639 34.9893 85.6519 35.256 84.2013 35.256C82.4519 35.256 80.8946 34.8827 79.5293 34.136C78.1639 33.3893 77.0973 32.3227 76.3293 30.936C75.5613 29.5493 75.1773 27.928 75.1773 26.072C75.1773 24.216 75.5506 22.5947 76.2973 21.208C77.0653 19.8213 78.1319 18.7547 79.4973 18.008C80.8626 17.2613 82.4306 16.888 84.2013 16.888C85.9293 16.888 87.4653 17.2507 88.8093 17.976C90.1533 18.7013 91.1986 19.736 91.9453 21.08C92.7133 22.424 93.0972 23.992 93.0972 25.784ZM87.4973 24.344C87.4973 23.4053 87.1773 22.6587 86.5373 22.104C85.8973 21.5493 85.0973 21.272 84.1373 21.272C83.2199 21.272 82.4413 21.5387 81.8013 22.072C81.1826 22.6053 80.7986 23.3627 80.6493 24.344H87.4973ZM113.168 12.632V35H110.928V24.536H98.8V35H96.56V12.632H98.8V22.68H110.928V12.632H113.168ZM134.087 25.368C134.087 26.136 134.065 26.7227 134.023 27.128H119.527C119.591 28.4507 119.911 29.5813 120.487 30.52C121.063 31.4587 121.82 32.1733 122.759 32.664C123.697 33.1333 124.721 33.368 125.831 33.368C127.281 33.368 128.497 33.016 129.479 32.312C130.481 31.608 131.143 30.6587 131.463 29.464H133.831C133.404 31.1707 132.487 32.568 131.079 33.656C129.692 34.7227 127.943 35.256 125.831 35.256C124.188 35.256 122.716 34.8933 121.415 34.168C120.113 33.4213 119.089 32.376 118.343 31.032C117.617 29.6667 117.255 28.0773 117.255 26.264C117.255 24.4507 117.617 22.8613 118.343 21.496C119.068 20.1307 120.081 19.0853 121.383 18.36C122.684 17.6347 124.167 17.272 125.831 17.272C127.495 17.272 128.945 17.6347 130.183 18.36C131.441 19.0853 132.401 20.0667 133.063 21.304C133.745 22.52 134.087 23.8747 134.087 25.368ZM131.815 25.304C131.836 24.0027 131.569 22.8933 131.015 21.976C130.481 21.0587 129.745 20.3653 128.807 19.896C127.868 19.4267 126.844 19.192 125.735 19.192C124.071 19.192 122.652 19.7253 121.479 20.792C120.305 21.8587 119.655 23.3627 119.527 25.304H131.815ZM140.425 20.632C140.916 19.544 141.662 18.7013 142.665 18.104C143.689 17.5067 144.937 17.208 146.409 17.208V19.544H145.801C144.18 19.544 142.878 19.9813 141.897 20.856C140.916 21.7307 140.425 23.192 140.425 25.24V35H138.185V17.528H140.425V20.632ZM152.019 20.632C152.509 19.544 153.256 18.7013 154.259 18.104C155.283 17.5067 156.531 17.208 158.003 17.208V19.544H157.395C155.773 19.544 154.472 19.9813 153.491 20.856C152.509 21.7307 152.019 23.192 152.019 25.24V35H149.779V17.528H152.019V20.632ZM177.181 25.368C177.181 26.136 177.159 26.7227 177.117 27.128H162.621C162.685 28.4507 163.005 29.5813 163.581 30.52C164.157 31.4587 164.914 32.1733 165.853 32.664C166.791 33.1333 167.815 33.368 168.925 33.368C170.375 33.368 171.591 33.016 172.573 32.312C173.575 31.608 174.237 30.6587 174.557 29.464H176.925C176.498 31.1707 175.581 32.568 174.173 33.656C172.786 34.7227 171.037 35.256 168.925 35.256C167.282 35.256 165.81 34.8933 164.509 34.168C163.207 33.4213 162.183 32.376 161.437 31.032C160.711 29.6667 160.349 28.0773 160.349 26.264C160.349 24.4507 160.711 22.8613 161.437 21.496C162.162 20.1307 163.175 19.0853 164.477 18.36C165.778 17.6347 167.261 17.272 168.925 17.272C170.589 17.272 172.039 17.6347 173.277 18.36C174.535 19.0853 175.495 20.0667 176.157 21.304C176.839 22.52 177.181 23.8747 177.181 25.368ZM174.909 25.304C174.93 24.0027 174.663 22.8933 174.109 21.976C173.575 21.0587 172.839 20.3653 171.901 19.896C170.962 19.4267 169.938 19.192 168.829 19.192C167.165 19.192 165.746 19.7253 164.573 20.792C163.399 21.8587 162.749 23.3627 162.621 25.304H174.909ZM183.519 20.632C184.009 19.544 184.756 18.7013 185.759 18.104C186.783 17.5067 188.031 17.208 189.503 17.208V19.544H188.895C187.273 19.544 185.972 19.9813 184.991 20.856C184.009 21.7307 183.519 23.192 183.519 25.24V35H181.279V17.528H183.519V20.632ZM191.849 26.232C191.849 24.44 192.201 22.872 192.905 21.528C193.63 20.1627 194.622 19.1173 195.881 18.392C197.161 17.6453 198.601 17.272 200.201 17.272C201.865 17.272 203.294 17.656 204.489 18.424C205.705 19.192 206.579 20.1733 207.113 21.368V17.528H209.353V35H207.113V31.128C206.558 32.3227 205.673 33.3147 204.457 34.104C203.262 34.872 201.833 35.256 200.169 35.256C198.59 35.256 197.161 34.8827 195.881 34.136C194.622 33.3893 193.63 32.3333 192.905 30.968C192.201 29.6027 191.849 28.024 191.849 26.232ZM207.113 26.264C207.113 24.856 206.825 23.6187 206.249 22.552C205.673 21.4853 204.883 20.664 203.881 20.088C202.899 19.512 201.811 19.224 200.617 19.224C199.379 19.224 198.27 19.5013 197.289 20.056C196.307 20.6107 195.529 21.4213 194.953 22.488C194.398 23.5333 194.121 24.7813 194.121 26.232C194.121 27.6613 194.398 28.92 194.953 30.008C195.529 31.0747 196.307 31.896 197.289 32.472C198.27 33.0267 199.379 33.304 200.617 33.304C201.811 33.304 202.899 33.016 203.881 32.44C204.883 31.864 205.673 31.0427 206.249 29.976C206.825 28.9093 207.113 27.672 207.113 26.264Z" fill="white"/>
<path d="M217.392 35.192C216.837 35.192 216.368 35 215.984 34.616C215.6 34.232 215.408 33.7627 215.408 33.208C215.408 32.6533 215.6 32.184 215.984 31.8C216.368 31.416 216.837 31.224 217.392 31.224C217.925 31.224 218.373 31.416 218.736 31.8C219.12 32.184 219.312 32.6533 219.312 33.208C219.312 33.7627 219.12 34.232 218.736 34.616C218.373 35 217.925 35.192 217.392 35.192Z" fill="#F13024"/>
</svg>
